<svg width="126" height="126" viewBox="0 0 126 126" fill="none" xmlns="http://www.w3.org/2000/svg">
<circle cx="63.3373" cy="62.6295" r="62.4994" fill="#E6ECF2"/>
<path d="M83.8913 47.0464C83.6365 46.4669 83.2182 45.9744 82.6877 45.6292C82.1571 45.2839 81.5373 45.101 80.9043 45.1028H45.7557C45.1229 45.1079 44.5049 45.2952 43.9757 45.6422C43.4465 45.9893 43.0285 46.4815 42.7717 47.0599C42.5149 47.6382 42.4301 48.2784 42.5275 48.9037C42.625 49.529 42.9005 50.113 43.3211 50.5858L56.7831 65.3777V81.3357C56.7821 81.9295 56.9436 82.5122 57.2502 83.0207C57.5567 83.5292 57.9966 83.9441 58.5221 84.2205C58.9953 84.4706 59.5214 84.6038 60.0566 84.6092C60.7048 84.6094 61.3385 84.4172 61.8774 84.0568L68.4243 79.6786C68.8727 79.3806 69.2401 78.9761 69.4936 78.5011C69.7471 78.0262 69.8788 77.4958 69.8769 76.9575V65.3777L83.3389 50.5858C83.7673 50.1147 84.048 49.5282 84.1462 48.899C84.2444 48.2698 84.1558 47.6257 83.8913 47.0464Z" fill="#0152A8"/>
</svg>
