<svg width="126" height="126" viewBox="0 0 126 126" fill="none" xmlns="http://www.w3.org/2000/svg">
<circle cx="63.0111" cy="62.6295" r="62.4994" fill="#E6ECF2"/>
<path d="M83.0366 53.4465C82.7575 53.7164 82.3844 53.8672 81.9961 53.8672C81.6078 53.8672 81.2347 53.7164 80.9555 53.4465L77.6148 50.0875L72.3756 55.3267L78.6554 61.5883C78.9296 61.8652 79.0835 62.2391 79.0835 62.6288C79.0835 63.0185 78.9296 63.3925 78.6554 63.6694C78.3762 63.9393 78.0031 64.0902 77.6148 64.0902C77.2265 64.0902 76.8534 63.9393 76.5743 63.6694L75.4242 62.501L60.0898 77.8354C59.542 78.3818 58.8008 78.6901 58.027 78.6934H49.0089L45.0658 82.6548C44.7867 82.9247 44.4136 83.0756 44.0253 83.0756C43.637 83.0756 43.2639 82.9247 42.9847 82.6548C42.7105 82.3779 42.5566 82.0039 42.5566 81.6142C42.5566 81.2245 42.7105 80.8506 42.9847 80.5737L46.9461 76.6306V67.6125C46.9494 66.8387 47.2577 66.0975 47.8041 65.5497L49.8487 63.5051C49.9852 63.3713 50.1687 63.2963 50.3598 63.2963C50.551 63.2963 50.7345 63.3713 50.871 63.5051L56.1285 68.7808C56.4076 69.0507 56.7807 69.2016 57.169 69.2016C57.5573 69.2016 57.9304 69.0507 58.2096 68.7808C58.4838 68.5039 58.6377 68.13 58.6377 67.7403C58.6377 67.3506 58.4838 66.9766 58.2096 66.6997L52.9338 61.4422C52.8 61.3057 52.7251 61.1222 52.7251 60.9311C52.7251 60.7399 52.8 60.5564 52.9338 60.4199L56.4206 56.9332C56.5571 56.7994 56.7406 56.7245 56.9317 56.7245C57.1228 56.7245 57.3063 56.7994 57.4428 56.9332L62.7003 62.2089C62.9795 62.4789 63.3526 62.6297 63.7409 62.6297C64.1292 62.6297 64.5023 62.4789 64.7814 62.2089C65.0557 61.9321 65.2095 61.5581 65.2095 61.1684C65.2095 60.7787 65.0557 60.4047 64.7814 60.1279L59.5057 54.8704C59.3719 54.7339 59.2969 54.5503 59.2969 54.3592C59.2969 54.1681 59.3719 53.9846 59.5057 53.8481L63.1385 50.2153L62.0249 49.1017C61.7491 48.8299 61.5878 48.4627 61.5742 48.0757C61.5607 47.6887 61.6958 47.3111 61.9519 47.0206C62.0869 46.8797 62.2485 46.7668 62.4274 46.6887C62.6062 46.6105 62.7988 46.5685 62.9939 46.5651C63.1891 46.5617 63.383 46.597 63.5645 46.6689C63.746 46.7408 63.9114 46.8479 64.0512 46.9841L70.3128 53.2639L75.552 48.0247L72.2478 44.7205C71.972 44.4486 71.8107 44.0815 71.7972 43.6944C71.7836 43.3074 71.9187 42.9299 72.1748 42.6394C72.3098 42.4984 72.4714 42.3856 72.6503 42.3074C72.8291 42.2292 73.0217 42.1872 73.2169 42.1838C73.412 42.1804 73.6059 42.2157 73.7874 42.2876C73.9689 42.3595 74.1343 42.4667 74.2741 42.6029L83.0366 51.3654C83.3109 51.6422 83.4647 52.0162 83.4647 52.4059C83.4647 52.7956 83.3109 53.1696 83.0366 53.4465Z" fill="#0152A8"/>
</svg>
