<svg width="126" height="126" viewBox="0 0 126 126" fill="none" xmlns="http://www.w3.org/2000/svg">
<circle cx="62.6859" cy="62.6295" r="62.4994" fill="#E6ECF2"/>
<path d="M44.3081 55.7306L60.62 50.9821H60.6399L79.2764 45.5381C79.7511 45.3972 80.2523 45.3706 80.7391 45.4604C81.226 45.5502 81.6847 45.7538 82.0779 46.0547C82.4762 46.3475 82.7992 46.7308 83.0203 47.173C83.2414 47.6152 83.3542 48.1035 83.3495 48.5979V76.1355C83.3495 76.9752 83.0173 77.7808 82.4254 78.3764C81.8335 78.972 81.0301 79.3092 80.1904 79.3144C79.8818 79.3152 79.5745 79.2751 79.2764 79.1952L62.6863 74.3473V76.6719C62.6863 77.515 62.3514 78.3236 61.7552 78.9198C61.1591 79.516 60.3505 79.8509 59.5074 79.8509H53.1495C52.3064 79.8509 51.4978 79.516 50.9016 78.9198C50.3055 78.3236 49.9706 77.515 49.9706 76.6719V70.6518L44.3081 69.0027C43.6488 68.8062 43.0705 68.4024 42.659 67.8512C42.2474 67.3 42.0244 66.6309 42.0232 65.943V58.7904C42.0244 58.1025 42.2474 57.4333 42.659 56.8822C43.0705 56.331 43.6488 55.9272 44.3081 55.7306ZM53.1495 76.6719H59.5074V73.4334L53.1495 71.5658V76.6719ZM45.2021 65.943L52.0369 67.9298L59.5074 70.1154V54.618L45.2021 58.7904V65.943Z" fill="#0152A8"/>
</svg>
