<svg width="126" height="126" viewBox="0 0 126 126" fill="none" xmlns="http://www.w3.org/2000/svg">
<circle cx="63.3597" cy="62.6295" r="62.4994" fill="#E6ECF2"/>
<path d="M79.2937 48.4389H71.986V46.9774C71.9812 45.816 71.5177 44.7035 70.6965 43.8823C69.8753 43.0611 68.7628 42.5976 67.6014 42.5928H58.8322C57.6708 42.5976 56.5583 43.0611 55.7371 43.8823C54.9159 44.7035 54.4524 45.816 54.4476 46.9774V48.4389H47.1399C46.3646 48.4389 45.6211 48.7469 45.0729 49.2951C44.5248 49.8433 44.2168 50.5868 44.2168 51.362V74.7466C44.2168 75.5219 44.5248 76.2654 45.0729 76.8135C45.6211 77.3617 46.3646 77.6697 47.1399 77.6697H79.2937C80.069 77.6697 80.8125 77.3617 81.3606 76.8135C81.9088 76.2654 82.2168 75.5219 82.2168 74.7466V51.362C82.2168 50.5868 81.9088 49.8433 81.3606 49.2951C80.8125 48.7469 80.069 48.4389 79.2937 48.4389ZM57.3706 46.9774C57.3706 46.5898 57.5246 46.218 57.7987 45.9439C58.0728 45.6698 58.4446 45.5159 58.8322 45.5159H67.6014C67.989 45.5159 68.3608 45.6698 68.6349 45.9439C68.909 46.218 69.063 46.5898 69.063 46.9774V48.4389H57.3706V46.9774ZM68.3322 64.5159H64.6783V68.1697C64.6783 68.5573 64.5244 68.9291 64.2503 69.2032C63.9762 69.4773 63.6044 69.6312 63.2168 69.6312C62.8292 69.6312 62.4574 69.4773 62.1833 69.2032C61.9092 68.9291 61.7553 68.5573 61.7553 68.1697V64.5159H58.1014C57.7138 64.5159 57.342 64.3619 57.0679 64.0878C56.7939 63.8137 56.6399 63.4419 56.6399 63.0543C56.6399 62.6667 56.7939 62.2949 57.0679 62.0208C57.342 61.7468 57.7138 61.5928 58.1014 61.5928H61.7553V57.9389C61.7553 57.5513 61.9092 57.1796 62.1833 56.9055C62.4574 56.6314 62.8292 56.4774 63.2168 56.4774C63.6044 56.4774 63.9762 56.6314 64.2503 56.9055C64.5244 57.1796 64.6783 57.5513 64.6783 57.9389V61.5928H68.3322C68.7198 61.5928 69.0916 61.7468 69.3656 62.0208C69.6397 62.2949 69.7937 62.6667 69.7937 63.0543C69.7937 63.4419 69.6397 63.8137 69.3656 64.0878C69.0916 64.3619 68.7198 64.5159 68.3322 64.5159Z" fill="#0152A8"/>
</svg>
